<?xml version='1.0' encoding='UTF-8'?>
<svg x="0px" y="0px" viewBox="0 0 32 32" version="1.1" xmlns="http://www.w3.org/2000/svg" xmlns:xlink="http://www.w3.org/1999/xlink" xml:space="preserve" id="Layer_1" style="enable-background:new 0 0 32 32">
  <style type="text/css">
	.Blue{fill:#1177D7;}
	.Yellow{fill:#FFB115;}
	.Red{fill:#D11C1C;}
	.Green{fill:#039C23;}
	.Black{fill:#727272;}
	.White{fill:#FFFFFF;}
	.st0{opacity:0.5;}
	.st1{opacity:0.75;}
	.st2{display:none;}
	.st3{display:inline;fill:#FFB115;}
	.st4{display:inline;}
	.st5{display:inline;opacity:0.75;}
	.st6{display:inline;opacity:0.5;}
	.st7{display:inline;fill:#039C23;}
	.st8{display:inline;fill:#D11C1C;}
	.st9{display:inline;fill:#1177D7;}
	.st10{display:inline;fill:#FFFFFF;}
</style>
  <g id="FileAttachment">
    <path d="M20,10v13c0,2.8-2.2,5-5,5s-5-2.2-5-5V7c0-1.7,1.3-3,3-3s3,1.3,3,3v16c0,0.6-0.4,1-1,1s-1-0.4-1-1V10h-2v13   c0,1.7,1.3,3,3,3s3-1.3,3-3V7c0-2.8-2.2-5-5-5S8,4.2,8,7v16c0,3.9,3.1,7,7,7s7-3.1,7-7V10H20z" class="Black" />
  </g>
</svg>