<?xml version='1.0' encoding='UTF-8'?>
<svg x="0px" y="0px" viewBox="0 0 32 32" version="1.1" xmlns="http://www.w3.org/2000/svg" xmlns:xlink="http://www.w3.org/1999/xlink" xml:space="preserve" id="Layer_1" style="enable-background:new 0 0 32 32">
  <style type="text/css">
	.Black{fill:#727272;}
	.Yellow{fill:#FFB115;}
	.Blue{fill:#1177D7;}
	.Green{fill:#039C23;}
	.Red{fill:#D11C1C;}
	.White{fill:#FFFFFF;}
	.st0{opacity:0.75;}
	.st1{opacity:0.5;}
	.st2{opacity:0.25;}
</style>
  <g id="QuickFilter">
    <polygon points="0,2 20,2 20,6 12,14 12,24 8,28 8,14 0,6  " class="Yellow" />
    <path d="M31,14H15c-0.5,0-1,0.5-1,1v16c0,0.5,0.5,1,1,1h16c0.5,0,1-0.5,1-1V15C32,14.5,31.5,14,31,14z M22,28l-5-5   l2-2l3,3l6-6l2,2L22,28z" class="Green" />
  </g>
</svg>