<?xml version='1.0' encoding='UTF-8'?>
<svg x="0px" y="0px" viewBox="0 0 32 32" version="1.1" xmlns="http://www.w3.org/2000/svg" xmlns:xlink="http://www.w3.org/1999/xlink" xml:space="preserve" id="Layer_1" style="enable-background:new 0 0 32 32">
  <style type="text/css">
	.Black{fill:#737374;}
	.Yellow{fill:#FCB01B;}
	.Green{fill:#129C49;}
	.Blue{fill:#387CB7;}
	.Red{fill:#D02127;}
	.White{fill:#FFFFFF;}
	.st0{opacity:0.5;}
	.st1{opacity:0.75;}
	.st2{opacity:0.25;}
	.st3{display:none;fill:#737374;}
</style>
  <path d="M27,2H1C0.5,2,0,2.5,0,3v7h28V3C28,2.5,27.5,2,27,2z" class="Blue" />
  <g class="st0">
    <path d="M26,16.2V10h2v6.9C27.4,16.6,26.7,16.4,26,16.2z M14.1,24.7L13.9,24H2V10H0v15c0,0.5,0.5,1,1,1h13.8   C14.4,25.3,14.2,24.8,14.1,24.7z" class="Black" />
  </g>
  <path d="M24,18c-5.7,0-8,6-8,6s2.3,6,8,6s8-6,8-6S29.7,18,24,18z M24,28c-2.2,0-4-1.8-4-4c0-2.2,1.8-4,4-4  c2.2,0,4,1.8,4,4C28,26.2,26.2,28,24,28z M26,24c0,1.1-0.9,2-2,2s-2-0.9-2-2s0.9-2,2-2S26,22.9,26,24z" class="Black" />
</svg>